<?xml version="1.0" encoding="UTF-8"?>
<svg version="1.1" xmlns="http://www.w3.org/2000/svg" width="198" height="184">
<path d="M0 0 C65.34 0 130.68 0 198 0 C198 60.72 198 121.44 198 184 C132.66 184 67.32 184 0 184 C0 123.28 0 62.56 0 0 Z " fill="#FFFFFF" transform="translate(0,0)"/>
<path d="M0 0 C2.61344189 2.61344189 3.40062708 5.17902078 4.75 8.625 C5.01458008 9.29813232 5.27916016 9.97126465 5.55175781 10.66479492 C7.57136377 15.82820625 9.52827234 21.01518996 11.45458984 26.21411133 C13.12918363 30.72167673 14.85398327 35.20768401 16.6015625 39.6875 C17.05821289 40.86143311 17.51486328 42.03536621 17.98535156 43.24487305 C18.90251191 45.59948727 19.82365571 47.95255425 20.74902344 50.30395508 C21.16958008 51.38572021 21.59013672 52.46748535 22.0234375 53.58203125 C22.40419434 54.55374268 22.78495117 55.5254541 23.17724609 56.52661133 C24 59 24 59 24 62 C24.65967773 61.99476318 25.31935547 61.98952637 25.99902344 61.98413086 C41.1338183 61.88207821 56.24608407 62.03306478 71.375 62.4375 C72.16080444 62.45714813 72.94660889 62.47679626 73.75622559 62.49703979 C76.01212482 62.55444369 78.26776458 62.6179497 80.5234375 62.68359375 C81.82200684 62.72025146 83.12057617 62.75690918 84.45849609 62.79467773 C87.71093839 62.98324136 90.80202461 63.39363624 94 64 C90.10277881 68.05430688 85.94504747 71.60635571 81.5625 75.125 C80.86237793 75.69049561 80.16225586 76.25599121 79.44091797 76.83862305 C73.72840326 81.44176765 67.96749773 85.9820614 62.1875 90.5 C59.31443492 92.74758919 56.46667278 95.02529995 53.625 97.3125 C49.48505267 100.63679545 45.26775801 103.84226296 41 107 C44.34790158 121.69570907 48.16705658 136.25708996 52.01733398 150.82788086 C52.81977442 153.86774479 53.61899606 156.90844187 54.41796875 159.94921875 C54.6627446 160.87111496 54.90752045 161.79301117 55.15971375 162.74284363 C56.3157253 167.14602514 57.35549892 171.48570442 58 176 C46.87046381 169.74093123 36.27777403 162.77177764 25.875 155.375 C21.08096773 151.98390359 16.10015606 148.931252 11.078125 145.89453125 C8 144 8 144 4.921875 141.69921875 C2.19115419 139.77254082 2.19115419 139.77254082 -0.58203125 140.05078125 C-3.30754024 141.12073066 -5.34350921 142.43241268 -7.6875 144.1875 C-10.92946317 146.54399305 -14.15591945 148.74343233 -17.625 150.75 C-22.78979398 153.78764014 -27.67211033 157.17802085 -32.58837891 160.59594727 C-40.27090096 165.91830729 -48.12837492 170.963329 -56 176 C-57.27836837 172.1648949 -56.50792293 170.45247002 -55.41015625 166.578125 C-55.23039749 165.9333017 -55.05063873 165.28847839 -54.86543274 164.62411499 C-54.47535745 163.22751476 -54.08156865 161.8319476 -53.68450928 160.43731689 C-52.62923007 156.72639148 -51.60452125 153.00698324 -50.57421875 149.2890625 C-50.36162415 148.5250412 -50.14902954 147.7610199 -49.92999268 146.97384644 C-47.86715396 139.55355979 -45.86061616 132.11932585 -43.91159058 124.66833496 C-43.55465933 123.30914209 -43.19442214 121.95081297 -42.83084106 120.59338379 C-42.32461591 118.70238018 -41.82998959 116.80828294 -41.3359375 114.9140625 C-41.05282715 113.8410791 -40.7697168 112.7680957 -40.47802734 111.66259766 C-39.76429134 108.90897246 -39.76429134 108.90897246 -41 106 C-43.03906139 104.28045392 -43.03906139 104.28045392 -45.625 102.5625 C-50.25813527 99.29064674 -54.71747386 95.88166014 -59.125 92.3125 C-65.32902469 87.30140302 -71.62918611 82.43148926 -77.97680664 77.60400391 C-83.38631588 73.48480749 -88.72460376 69.29030997 -94 65 C-90.85785471 63.42892736 -88.70366022 64.84167841 -85.4140625 65.88671875 C-84.39950737 66.2061998 -84.39950737 66.2061998 -83.36445618 66.53213501 C-81.11547391 67.24297277 -78.87024417 67.96494931 -76.625 68.6875 C-75.05422636 69.18743418 -73.48334249 69.68702219 -71.91235352 70.1862793 C-57.01328863 74.9373236 -42.17655803 79.87807403 -27.35491943 84.86460876 C-19.24240855 87.59377462 -11.12110127 90.29652579 -3 93 C-2.67 92.67 -2.34 92.34 -2 92 C-3.38774895 90.06882623 -4.77686914 88.13868416 -6.16870117 86.21044922 C-7.35447829 84.5609997 -8.53296876 82.90628898 -9.7043457 81.24658203 C-12.33457719 77.54600398 -14.91723404 73.9623994 -18.078125 70.6953125 C-20.74699065 67.81070022 -22.46781138 65.61786724 -24 62 C-23.32080078 58.73046875 -23.32080078 58.73046875 -21.7578125 55.0625 C-21.17305314 53.63944498 -20.58903121 52.21608677 -20.00561523 50.79248047 C-19.68156708 50.02482361 -19.35751892 49.25716675 -19.02365112 48.46624756 C-17.16037798 43.97712746 -15.46189326 39.42400002 -13.73046875 34.8828125 C-12.98092659 32.93837427 -12.23026542 30.99436704 -11.47851562 29.05078125 C-9.93008803 25.04616991 -8.38330646 21.04093081 -6.83789062 17.03515625 C-6.09386478 15.10933065 -5.34972842 13.18354775 -4.60546875 11.2578125 C-4.0836628 9.90491623 -4.0836628 9.90491623 -3.55131531 8.52468872 C-3.23040421 7.69556976 -2.9094931 6.86645081 -2.57885742 6.01220703 C-2.29717209 5.28325226 -2.01548676 4.55429749 -1.7252655 3.80325317 C-1 2 -1 2 0 0 Z " fill="#DCCB1A" transform="translate(99,4)"/>
<path d="M0 0 C1.60594946 2.40892419 2.59101109 4.25416029 3.61645508 6.89794922 C3.92049759 7.67661346 4.2245401 8.45527771 4.53779602 9.25753784 C5.02375496 10.51837692 5.02375496 10.51837692 5.51953125 11.8046875 C5.85997971 12.67964874 6.20042816 13.55460999 6.55119324 14.45608521 C7.64167568 17.26109104 8.72712853 20.06801311 9.8125 22.875 C10.53157574 24.72668886 11.2509734 26.57825274 11.97070312 28.4296875 C13.3578076 31.99939423 14.74047461 35.5707694 16.11962891 39.14355469 C17.27643151 42.13874141 18.44328426 45.129397 19.62646484 48.11425781 C20.08359863 49.27538086 20.54073242 50.43650391 21.01171875 51.6328125 C21.40190186 52.6139502 21.79208496 53.59508789 22.1940918 54.60595703 C23 57 23 57 23 60 C23.65967773 59.99476318 24.31935547 59.98952637 24.99902344 59.98413086 C40.1338183 59.88207821 55.24608407 60.03306478 70.375 60.4375 C71.16080444 60.45714813 71.94660889 60.47679626 72.75622559 60.49703979 C75.01212482 60.55444369 77.26776458 60.6179497 79.5234375 60.68359375 C81.4712915 60.73858032 81.4712915 60.73858032 83.45849609 60.79467773 C86.71093839 60.98324136 89.80202461 61.39363624 93 62 C89.10277881 66.05430688 84.94504747 69.60635571 80.5625 73.125 C79.86237793 73.69049561 79.16225586 74.25599121 78.44091797 74.83862305 C72.72840326 79.44176765 66.96749773 83.9820614 61.1875 88.5 C58.31443492 90.74758919 55.46667278 93.02529995 52.625 95.3125 C48.48505267 98.63679545 44.26775801 101.84226296 40 105 C42.17453885 114.58748081 44.52200405 124.11671408 47.05078125 133.6171875 C47.31591522 134.61606995 47.58104919 135.61495239 47.85421753 136.644104 C48.95377948 140.78218703 50.05536279 144.9196674 51.16821289 149.05419922 C51.99072618 152.11492271 52.80284262 155.17824822 53.61328125 158.2421875 C53.86837967 159.17956757 54.12347809 160.11694763 54.38630676 161.08273315 C54.72742744 162.38151901 54.72742744 162.38151901 55.07543945 163.70654297 C55.27877396 164.46579071 55.48210846 165.22503845 55.69160461 166.0072937 C56 168 56 168 55 171 C48.51510113 162.69381038 42.23727103 154.27197516 36.17333984 145.65332031 C35.36999562 144.52135047 34.55732238 143.39595979 33.73681641 142.27636719 C31.64496251 139.4111419 29.69533703 136.55624967 27.96484375 133.45703125 C26.01304662 130.0229548 23.87816127 126.88568985 21.5625 123.6875 C21.14218506 123.10500488 20.72187012 122.52250977 20.28881836 121.92236328 C19.36719383 120.64590915 18.44403221 119.37056376 17.51953125 118.09619141 C15.8628128 115.81075043 14.21226131 113.52093636 12.5625 111.23046875 C10.30488785 108.0978714 8.04678426 104.96563716 5.78515625 101.8359375 C5.31988525 101.19188965 4.85461426 100.5478418 4.37524414 99.88427734 C3.05979739 97.97712168 3.05979739 97.97712168 1.43533325 96.44992065 C-0.75601321 92.70958722 -0.39370516 89.17579415 -0.34057617 84.91699219 C-0.34101425 83.99957245 -0.34145233 83.08215271 -0.34190369 82.13693237 C-0.33981485 79.10669623 -0.31647908 76.07701441 -0.29296875 73.046875 C-0.28737314 70.94509178 -0.28310288 68.84330465 -0.28010559 66.74151611 C-0.26865411 61.21107165 -0.23918413 55.68086373 -0.20599365 50.1505127 C-0.17529943 44.50662435 -0.16160163 38.86269776 -0.14648438 33.21875 C-0.11431488 22.14572943 -0.0631147 11.07288439 0 0 Z " fill="#FBF474" transform="translate(100,6)"/>
<path d="M0 0 C2.86761436 2.79670849 5.55401853 5.52565516 7.875 8.79296875 C8.37902344 9.49687744 8.88304688 10.20078613 9.40234375 10.92602539 C9.92957031 11.67231201 10.45679687 12.41859863 11 13.1875 C12.1455164 14.7944968 13.29135953 16.40126074 14.4375 18.0078125 C15.02273437 18.83055664 15.60796875 19.65330078 16.2109375 20.50097656 C17.97792437 22.96916401 19.76584541 25.42053177 21.5625 27.8671875 C22.13871094 28.65456299 22.71492188 29.44193848 23.30859375 30.25317383 C24.40139309 31.74520456 25.49752025 33.23480617 26.59765625 34.72143555 C29.69269469 38.96672405 32.31129337 43.28831647 34.80712891 47.90844727 C36.5065189 50.88811858 38.54835156 53.51091261 40.6875 56.1875 C44.9108888 61.52789788 48.90227456 66.99530024 52.77612305 72.59448242 C54.91730662 75.80553389 54.91730662 75.80553389 58 78 C57.505 79.485 57.505 79.485 57 81 C48.55998034 75.59964089 40.16152134 70.16288948 31.9375 64.4375 C25.32493128 59.84169908 18.57273553 55.51486185 11.71875 51.2890625 C11.1530983 50.92920258 10.58744659 50.56934265 10.00465393 50.19857788 C8.02495574 48.96656838 8.02495574 48.96656838 5.91430664 48.03825378 C3.61007625 46.88582016 1.85117865 45.80037238 0 44 C-1.10389452 40.61849352 -0.93671668 37.41336666 -0.78125 33.88671875 C-0.76993042 32.91716751 -0.75861084 31.94761627 -0.74694824 30.94868469 C-0.70225207 27.85959109 -0.60190534 24.7751838 -0.5 21.6875 C-0.45986412 19.59056195 -0.42336353 17.49355096 -0.390625 15.39648438 C-0.3025386 10.26252426 -0.16453968 5.13205579 0 0 Z " fill="#966600" transform="translate(99,99)"/>
<path d="M0 0 C0.33 0 0.66 0 1 0 C1.24805523 5.85295858 1.42903011 11.70283404 1.54931641 17.55981445 C1.59946992 19.54961451 1.66761595 21.53904845 1.75439453 23.52758789 C2.45656295 40.03680646 2.45656295 40.03680646 -1.05517578 44.77001953 C-3.63957359 46.59370104 -6.07107014 47.82438854 -9 49 C-10.07507813 49.67546875 -11.15015625 50.3509375 -12.2578125 51.046875 C-13.20398438 51.60890625 -14.15015625 52.1709375 -15.125 52.75 C-20.80999082 56.20493002 -26.28096248 59.89897905 -31.74072266 63.69750977 C-39.37078408 68.98813953 -47.17993813 73.9963218 -55 79 C-55.33 78.01 -55.66 77.02 -56 76 C-54.95779297 75.02933594 -54.95779297 75.02933594 -53.89453125 74.0390625 C-50.35738448 70.49818325 -47.56899335 66.45191164 -44.6875 62.375 C-43.53670345 60.76154389 -42.38566235 59.14826219 -41.234375 57.53515625 C-40.68072266 56.75672363 -40.12707031 55.97829102 -39.55664062 55.17626953 C-36.97716834 51.57002488 -34.33156812 48.01321955 -31.68359375 44.45703125 C-29.9886846 41.98348634 -28.5319011 39.42226585 -27.06469727 36.80932617 C-25.30869503 33.82520956 -23.28669306 31.04692049 -21.25 28.25 C-20.81389404 27.64583252 -20.37778809 27.04166504 -19.9284668 26.41918945 C-19.04223876 25.19256451 -18.1544824 23.96704221 -17.26513672 22.74267578 C-16.11122266 21.15320481 -14.96348117 19.55925736 -13.81640625 17.96484375 C-3.06818182 3.06818182 -3.06818182 3.06818182 0 0 Z " fill="#B29102" transform="translate(98,101)"/>
<path d="M0 0 C9.55942047 2.20197978 18.82937362 5.10847504 28.1328125 8.18359375 C29.66103111 8.68566789 31.18934314 9.18745776 32.71774292 9.6889801 C35.90045239 10.73437146 39.08217766 11.78268868 42.26318359 12.83325195 C46.31371753 14.17080002 50.36640882 15.50166594 54.41983223 16.83042812 C57.56927916 17.86354328 60.71766949 18.89984787 63.86574936 19.93712044 C65.35879391 20.42873353 66.85212668 20.9194723 68.34576797 21.40926933 C76.33285531 24.03074521 84.24959363 26.72754653 92 30 C92 30.66 92 31.32 92 32 C87.25439503 33.60015142 82.50391889 35.18452508 77.74829102 36.75463867 C76.1319544 37.29071744 74.51702068 37.83104582 72.90356445 38.37573242 C70.58121703 39.15890779 68.25421742 39.92655276 65.92578125 40.69140625 C65.20787918 40.93717911 64.48997711 41.18295197 63.75032043 41.43617249 C59.79987291 42.71540651 56.98039754 43.35614316 53 42 C50.6328125 40.57421875 50.6328125 40.57421875 48.125 38.6875 C47.16078125 37.96304688 46.1965625 37.23859375 45.203125 36.4921875 C41.08620231 33.31092906 37.03083612 30.05235123 32.98217773 26.78491211 C28.11010933 22.85990069 23.16693005 19.03763023 18.1875 15.25 C3.53130564 4.08880789 3.53130564 4.08880789 0 1 C0 0.67 0 0.34 0 0 Z " fill="#996F00" transform="translate(5,68)"/>
<path d="M0 0 C0.99 0 1.98 0 3 0 C3 0.66 3 1.32 3 2 C3.5681543 2.10594482 4.13630859 2.21188965 4.72167969 2.32104492 C34.63571776 8.08268657 34.63571776 8.08268657 40.59912109 14.80175781 C43.08241236 19.55799096 43.55874778 24.85709505 44.3046875 30.10791016 C45.18350486 35.02718908 46.4603629 39.78887755 47.78125 44.60546875 C48.03822159 45.54593552 48.29519318 46.48640228 48.55995178 47.45536804 C49.08701877 49.37976119 49.61498404 51.30390852 50.14382935 53.22781372 C51.42312435 57.89770535 52.67515094 62.57397432 53.90234375 67.2578125 C54.12897705 68.09446945 54.35561035 68.9311264 54.58911133 69.7931366 C56.11455548 75.65633356 56.11455548 75.65633356 55 79 C48.51510113 70.69381038 42.23727103 62.27197516 36.17333984 53.65332031 C35.36999562 52.52135047 34.55732238 51.39595979 33.73681641 50.27636719 C31.64496251 47.4111419 29.69533703 44.55624967 27.96484375 41.45703125 C26.01304662 38.0229548 23.87816127 34.88568985 21.5625 31.6875 C21.14218506 31.10500488 20.72187012 30.52250977 20.28881836 29.92236328 C19.36719383 28.64590915 18.44403221 27.37056376 17.51953125 26.09619141 C15.8628128 23.81075043 14.21226131 21.52093636 12.5625 19.23046875 C10.30488785 16.0978714 8.04678426 12.96563716 5.78515625 9.8359375 C5.31988525 9.19188965 4.85461426 8.5478418 4.37524414 7.88427734 C3.38699549 6.5302381 2.36638728 5.19959846 1.32592773 3.88525391 C0 2 0 2 0 0 Z " fill="#FBF46F" transform="translate(100,98)"/>
<path d="M0 0 C-8.6403112 7.03333569 -17.28866699 14.05467828 -26 21 C-26.82886719 21.66515625 -27.65773437 22.3303125 -28.51171875 23.015625 C-38.11136813 30.71886585 -38.11136813 30.71886585 -42.85546875 34.31640625 C-45.02160229 35.97017253 -45.02160229 35.97017253 -46.98828125 37.83984375 C-51.72113158 42.02258322 -51.72113158 42.02258322 -55.08764648 41.96313477 C-62.59761145 40.24723664 -69.84090296 37.87062211 -77.125 35.375 C-78.36765625 34.95476562 -79.6103125 34.53453125 -80.890625 34.1015625 C-83.92899334 33.07319168 -86.96533385 32.03923423 -90 31 C-89.505 29.515 -89.505 29.515 -89 28 C-86.59943378 26.94131143 -84.30745002 26.08801469 -81.8203125 25.28515625 C-81.07284256 25.03325531 -80.32537262 24.78135437 -79.55525208 24.52182007 C-77.08204378 23.69100527 -74.60366712 22.8768689 -72.125 22.0625 C-70.40787436 21.48893801 -68.69116266 20.9141354 -66.97485352 20.33813477 C-63.42274627 19.14690839 -59.86890216 17.96107197 -56.31396484 16.77832031 C-51.24698116 15.08805626 -46.19351935 13.36038236 -41.14453125 11.6171875 C-39.97177643 11.21254524 -39.97177643 11.21254524 -38.77532959 10.79972839 C-35.7741355 9.76363558 -32.77324608 8.72666621 -29.77276611 7.68850708 C-22.76521997 5.2666847 -15.74744083 2.8749595 -8.69140625 0.59765625 C-7.66345947 0.26386963 -6.6355127 -0.06991699 -5.57641602 -0.41381836 C-3 -1 -3 -1 0 0 Z " fill="#DAC919" transform="translate(193,69)"/>
<path d="M0 0 C0.33 0 0.66 0 1 0 C1 31.35 1 62.7 1 95 C-0.485 94.505 -0.485 94.505 -2 94 C-2 93.34 -2 92.68 -2 92 C-3.07542131 90.22438326 -3.07542131 90.22438326 -4.52734375 88.2890625 C-5.0689917 87.5451123 -5.61063965 86.80116211 -6.16870117 86.03466797 C-6.75240479 85.23947754 -7.3361084 84.44428711 -7.9375 83.625 C-8.52055908 82.80789551 -9.10361816 81.99079102 -9.7043457 81.14892578 C-12.3358607 77.48696567 -14.9403424 73.94839423 -18.078125 70.703125 C-20.74288351 67.81497357 -22.46772124 65.61752712 -24 62 C-23.32080078 58.73046875 -23.32080078 58.73046875 -21.7578125 55.0625 C-21.17305314 53.63944498 -20.58903121 52.21608677 -20.00561523 50.79248047 C-19.68156708 50.02482361 -19.35751892 49.25716675 -19.02365112 48.46624756 C-17.16037798 43.97712746 -15.46189326 39.42400002 -13.73046875 34.8828125 C-12.98092659 32.93837427 -12.23026542 30.99436704 -11.47851562 29.05078125 C-9.93008803 25.04616991 -8.38330646 21.04093081 -6.83789062 17.03515625 C-6.09386478 15.10933065 -5.34972842 13.18354775 -4.60546875 11.2578125 C-4.25759811 10.35588165 -3.90972748 9.45395081 -3.55131531 8.52468872 C-3.23040421 7.69556976 -2.9094931 6.86645081 -2.57885742 6.01220703 C-2.29717209 5.28325226 -2.01548676 4.55429749 -1.7252655 3.80325317 C-1 2 -1 2 0 0 Z " fill="#CAA60A" transform="translate(99,4)"/>
<path d="M0 0 C18.58604624 -1.04757497 18.58604624 -1.04757497 23.26953125 2.8203125 C25.50785195 5.65528335 27.09213079 8.22583115 28.65185547 11.44726562 C30.7778862 15.47353713 33.6236826 19.04106481 36.30859375 22.70703125 C37.33579916 24.15527144 38.35832303 25.60684945 39.375 27.0625 C40.02577515 27.99098755 40.02577515 27.99098755 40.68969727 28.93823242 C41.74609375 30.51953125 41.74609375 30.51953125 42.74609375 32.51953125 C38.30736689 31.89184523 34.28259199 30.80727415 30.04296875 29.359375 C28.67936443 28.89810475 27.31575752 28.43684213 25.95214844 27.97558594 C25.22846069 27.72885132 24.50477295 27.4821167 23.75915527 27.22790527 C7.06878699 21.54261072 -9.70641803 16.12865416 -26.50390625 10.76953125 C-27.63654907 10.40801971 -28.76919189 10.04650818 -29.93615723 9.67404175 C-36.37446184 7.61956586 -42.81364143 5.56785402 -49.25390625 3.51953125 C-49.25390625 3.18953125 -49.25390625 2.85953125 -49.25390625 2.51953125 C-45.1051806 1.5423377 -41.13096467 1.32278538 -36.875 1.203125 C-36.15839706 1.18170944 -35.44179413 1.16029388 -34.70347595 1.13822937 C-30.74688737 1.02412488 -26.78993998 0.93640861 -22.83251953 0.85693359 C-22.02234375 0.84055847 -21.21216797 0.82418335 -20.37744141 0.80731201 C-18.73162563 0.77424074 -17.08579174 0.74205868 -15.43994141 0.71075439 C-10.27880392 0.60113163 -5.15068624 0.34531504 0 0 Z " fill="#FBF476" transform="translate(56.25390625,65.48046875)"/>
<path d="M0 0 C1.60594946 2.40892419 2.59101109 4.25416029 3.61645508 6.89794922 C3.92049759 7.67661346 4.2245401 8.45527771 4.53779602 9.25753784 C5.02375496 10.51837692 5.02375496 10.51837692 5.51953125 11.8046875 C5.85997971 12.67964874 6.20042816 13.55460999 6.55119324 14.45608521 C7.64167568 17.26109104 8.72712853 20.06801311 9.8125 22.875 C10.53157574 24.72668886 11.2509734 26.57825274 11.97070312 28.4296875 C13.3590201 32.00105693 14.73947124 35.57533359 16.11572266 39.15136719 C17.26512274 42.13005528 18.44026985 45.09405971 19.66162109 48.04394531 C20.12777832 49.18702148 20.59393555 50.33009766 21.07421875 51.5078125 C21.47600342 52.46574707 21.87778809 53.42368164 22.29174805 54.41064453 C23.1103698 57.40350987 22.92633364 59.05972461 22 62 C20.60360099 64.22389472 19.19524279 66.28273104 17.625 68.375 C17.18744385 68.97135254 16.7498877 69.56770508 16.29907227 70.18212891 C15.3634525 71.45597431 14.42429245 72.72722565 13.48193359 73.99609375 C11.94813529 76.07013271 10.43500635 78.15802374 8.92578125 80.25 C7.92998166 81.62521305 6.93389525 83.00021847 5.9375 84.375 C5.46070801 85.0354834 4.98391602 85.6959668 4.49267578 86.37646484 C3.3532003 87.9360311 2.1800289 89.47088814 1 91 C0.67 91 0.34 91 0 91 C0 60.97 0 30.94 0 0 Z " fill="#F4E227" transform="translate(100,6)"/>
</svg>
